<?xml version="1.0" standalone="no"?>
<!DOCTYPE svg PUBLIC "-//W3C//DTD SVG 20010904//EN"
 "http://www.w3.org/TR/2001/REC-SVG-20010904/DTD/svg10.dtd">
<svg version="1.0" xmlns="http://www.w3.org/2000/svg"
 width="2266.000000pt" height="1035.000000pt" viewBox="0 0 2266.000000 1035.000000"
 preserveAspectRatio="xMidYMid meet">

<g transform="translate(0.000000,1035.000000) scale(0.100000,-0.100000)"
fill="#000000" stroke="none">
<path d="M3990 10344 c-14 -2 -65 -9 -115 -15 -267 -33 -588 -154 -825 -311
-572 -381 -900 -999 -900 -1694 l0 -156 -72 7 c-40 4 -135 2 -211 -4 -396 -32
-749 -163 -1060 -394 -97 -71 -276 -243 -357 -342 -87 -107 -184 -260 -250
-396 -309 -641 -255 -1398 141 -1989 455 -678 1269 -1011 2074 -849 186 38
413 122 573 213 35 20 66 36 68 36 3 0 3 -460 1 -1022 -4 -1124 0 -1056 -66
-1238 -127 -348 -446 -611 -814 -670 -108 -18 -330 -8 -429 18 -351 94 -632
362 -741 707 -62 197 -61 445 4 633 10 30 19 57 19 59 0 2 -224 2 -497 1
l-498 -3 -14 -80 c-21 -122 -20 -484 2 -610 79 -454 274 -827 593 -1135 166
-160 314 -263 526 -364 281 -135 493 -185 813 -193 226 -6 356 8 548 56 720
183 1280 748 1456 1469 58 238 56 150 56 2289 l0 1972 80 -6 c105 -7 327 13
470 42 670 139 1221 609 1471 1255 141 366 166 813 68 1201 -64 257 -181 504
-336 711 -77 103 -248 280 -348 361 -360 291 -818 450 -1280 446 -69 -1 -136
-3 -150 -5z m316 -965 c389 -54 726 -337 847 -714 38 -118 50 -196 50 -330 -1
-272 -96 -510 -285 -710 -267 -283 -644 -394 -1017 -299 l-96 24 -406 -406
-406 -406 23 -80 c164 -563 -176 -1158 -745 -1305 -190 -48 -405 -42 -585 18
-612 204 -899 886 -615 1464 136 279 415 494 724 561 102 22 322 23 416 2 l67
-15 434 436 435 436 -14 55 c-21 83 -28 295 -13 387 62 390 334 714 704 838
152 51 322 67 482 44z"/>
<path d="M9223 8969 c-503 -59 -858 -414 -938 -939 -12 -79 -15 -285 -15
-1230 0 -766 4 -1164 11 -1225 58 -470 373 -804 864 -916 l100 -23 1485 -3
c930 -2 1508 0 1548 6 132 21 240 99 298 216 l29 60 0 1000 0 1000 -27 58
c-35 74 -121 160 -195 195 l-58 27 -1290 3 c-769 1 -1285 -1 -1280 -7 6 -5
243 -183 528 -395 l517 -386 515 0 515 0 0 -495 0 -495 -1272 2 c-999 3 -1281
6 -1310 16 -63 21 -120 73 -153 137 l-30 59 -3 1145 c-3 1040 -1 1152 14 1208
20 79 73 141 146 174 l53 24 1643 5 1643 5 -526 393 -526 392 -1107 -1 c-609
-1 -1139 -5 -1179 -10z"/>
<path d="M13020 6805 l0 -2175 390 0 390 0 0 2175 0 2175 -390 0 -390 0 0
-2175z"/>
<path d="M15282 8968 c-41 -5 -124 -22 -185 -37 -381 -96 -655 -322 -823 -675
-111 -236 -142 -602 -75 -907 50 -224 165 -425 342 -594 134 -128 300 -224
481 -279 207 -63 127 -59 1273 -66 1135 -6 1076 -3 1187 -62 104 -55 187 -169
219 -298 16 -66 16 -216 0 -284 -29 -123 -108 -230 -210 -285 -119 -63 -43
-61 -1743 -61 -1519 0 -1548 0 -1548 -19 0 -14 144 -127 503 -395 l502 -376
1090 3 c1061 3 1093 4 1185 24 383 84 682 285 849 571 55 95 107 224 137 344
35 140 45 421 20 578 -83 524 -446 895 -1006 1026 -68 16 -171 18 -1120 24
-977 5 -1049 7 -1100 24 -195 65 -310 237 -310 466 0 232 116 412 308 479 42
14 180 16 1442 21 l1396 5 -526 392 -525 393 -845 -1 c-465 -1 -878 -6 -918
-11z"/>
<path d="M17566 8971 c5 -5 242 -183 527 -395 l517 -386 570 0 570 0 0 -1780
0 -1780 395 0 395 0 0 1780 0 1780 533 0 533 0 522 390 c287 214 522 392 522
395 0 3 -1146 5 -2547 5 -1488 0 -2543 -4 -2537 -9z"/>
<path d="M9585 4010 c-475 -39 -852 -274 -1096 -685 -147 -246 -219 -539 -219
-883 1 -475 139 -852 422 -1148 188 -196 380 -308 646 -375 379 -96 829 -41
1137 139 278 163 506 447 620 772 63 183 86 317 92 550 8 299 -24 502 -113
733 -136 352 -418 653 -737 786 -221 91 -494 132 -752 111z m443 -159 c131
-28 213 -56 322 -112 351 -180 607 -545 679 -970 40 -235 36 -490 -10 -706
-105 -486 -429 -859 -865 -996 -239 -75 -584 -76 -838 -2 -455 132 -793 537
-887 1061 -17 95 -22 159 -22 319 0 160 5 224 22 319 86 482 385 869 794 1026
88 35 209 65 312 79 110 15 384 5 493 -18z"/>
<path d="M18615 3956 c-12 -9 -19 -26 -19 -49 0 -65 5 -67 208 -67 148 0 186
-3 204 -16 l22 -15 0 -1363 c0 -1308 -1 -1364 -18 -1379 -16 -15 -45 -17 -198
-17 -204 0 -218 -4 -218 -63 0 -71 -26 -67 500 -67 523 0 504 -2 504 64 0 61
-15 66 -216 66 -129 0 -185 4 -197 13 -16 11 -17 114 -19 1445 -3 1406 -3
1434 -22 1448 -28 20 -503 21 -531 0z"/>
<path d="M13001 3124 c-249 -42 -498 -176 -719 -388 -147 -141 -142 -145 -142
130 0 198 -1 203 -22 218 -19 13 -62 16 -265 16 -230 0 -244 -1 -263 -20 -25
-25 -26 -61 -1 -91 19 -23 24 -24 210 -29 156 -4 194 -8 201 -20 6 -9 10 -373
10 -932 0 -905 0 -918 -20 -938 -19 -19 -33 -20 -200 -20 -167 0 -181 -1 -200
-20 -24 -24 -26 -57 -4 -88 l15 -22 499 0 c483 0 500 1 510 19 16 30 12 76 -8
94 -16 15 -47 17 -220 17 -189 0 -203 1 -222 20 -20 20 -20 33 -20 641 l0 620
46 72 c63 97 147 198 235 283 227 217 504 324 839 324 125 0 120 11 120 -279
0 -266 0 -265 67 -265 62 0 63 3 63 340 0 262 -2 305 -16 318 -13 14 -46 16
-212 15 -118 -1 -231 -7 -281 -15z"/>
<path d="M14535 3125 c-178 -33 -327 -91 -462 -181 -115 -76 -130 -104 -85
-156 23 -27 52 -22 122 24 93 60 254 133 346 158 193 51 452 49 598 -4 204
-74 362 -245 395 -430 17 -91 14 -308 -3 -332 -14 -18 -34 -19 -503 -25 -462
-5 -492 -6 -568 -27 -324 -89 -517 -271 -562 -529 -47 -270 87 -533 332 -654
192 -94 478 -123 686 -70 166 42 358 158 501 303 48 48 94 88 102 88 23 0 26
-23 26 -184 0 -135 2 -155 18 -169 16 -15 50 -17 270 -17 278 0 282 1 282 64
0 61 -15 66 -214 66 -103 0 -185 4 -197 10 -18 10 -19 29 -19 688 0 408 -4
710 -10 760 -22 170 -91 304 -219 424 -91 85 -181 136 -306 174 -80 24 -109
27 -270 30 -128 2 -203 -1 -260 -11z m907 -1092 c16 -15 18 -35 18 -230 l0
-214 -46 -72 c-167 -258 -389 -433 -622 -488 -116 -28 -346 -23 -462 11 -247
71 -391 250 -390 485 1 140 41 238 139 335 76 75 154 120 262 150 121 33 199
37 653 39 387 1 431 -1 448 -16z"/>
<path d="M17120 3125 c-312 -63 -574 -297 -696 -624 -93 -248 -109 -583 -39
-857 92 -364 350 -640 686 -734 184 -51 452 -49 664 5 218 55 545 259 545 339
0 29 -48 86 -72 86 -8 0 -60 -36 -117 -80 -234 -182 -382 -237 -666 -247 -210
-7 -312 13 -465 88 -94 46 -116 63 -205 153 -197 199 -275 411 -275 745 0 240
35 399 126 571 167 316 468 476 807 431 239 -32 419 -130 616 -337 l101 -106
0 -128 c0 -144 6 -160 65 -160 67 0 65 -10 65 415 l0 384 -22 15 c-12 9 -32
16 -43 16 -11 0 -31 -7 -43 -16 -21 -14 -22 -22 -22 -135 0 -112 -9 -159 -29
-159 -5 0 -45 33 -90 73 -152 136 -322 224 -503 261 -93 19 -295 20 -388 1z"/>
<path d="M20695 3126 c-409 -79 -695 -385 -792 -846 -24 -118 -25 -419 0 -542
52 -260 153 -447 331 -615 128 -121 264 -191 446 -229 103 -22 354 -25 475 -5
198 32 398 125 584 271 101 80 110 111 42 159 -38 28 -44 27 -88 -12 -149
-132 -305 -221 -468 -264 -93 -25 -115 -27 -300 -27 -190 0 -204 1 -290 28
-129 39 -216 89 -311 179 -134 126 -223 279 -269 463 -31 120 -42 238 -25 259
11 13 120 15 909 15 833 0 898 1 931 18 56 28 62 48 57 217 -5 159 -20 230
-74 359 -85 204 -304 420 -511 505 -138 57 -222 73 -407 77 -116 2 -192 -1
-240 -10z m366 -131 c192 -29 356 -111 490 -246 157 -158 249 -371 249 -579 0
-75 67 -70 -888 -70 -524 0 -863 4 -872 10 -12 7 -14 26 -12 84 7 207 117 426
302 599 187 176 440 246 731 202z"/>
</g>
</svg>
